<svg xmlns="http://www.w3.org/2000/svg" width="135.757" height="33.622" viewBox="0 0 135.757 33.622">
  <g transform="translate(-21.29 2.377)">
    <g>
      <path d="M127.93,31.245,147.341-2.377l9.706,16.811-9.706,16.811Z" fill="#f7c600"/>
      <path d="M127.93-2.377l19.411,33.622,9.706-16.811L147.341-2.377Z" fill="#f7c600"/>
      <path d="M135.158,18.725l2.477-4.291,9.706,16.811Z" fill="#cc9200"/>
    </g>
    <g>
      <path d="M32.949,12.714v7.72h-2.48l-.26-.74a5.133,5.133,0,0,1-3.06.94,5.268,5.268,0,0,1-4.33-1.88,8.223,8.223,0,0,1-1.529-5.32,8.464,8.464,0,0,1,.81-3.81,5.879,5.879,0,0,1,2.3-2.51,6.736,6.736,0,0,1,3.491-.88,6.524,6.524,0,0,1,3.049.67,4.086,4.086,0,0,1,1.871,1.89l-1.841,1.58a3.262,3.262,0,0,0-1.26-1.17,3.77,3.77,0,0,0-1.779-.41,2.97,2.97,0,0,0-2.551,1.18,5.785,5.785,0,0,0-.87,3.46q0,4.86,3.1,4.86a4.406,4.406,0,0,0,2.161-.54v-2.78H26.85v-2.26Z" fill="#fff"/>
      <path d="M35.629,19.934a2.69,2.69,0,0,1-.72-2.02V6.434h2.84v11.54q0,.72.88.72a3.181,3.181,0,0,0,1.18-.28l.42,1.48a4.046,4.046,0,0,1-2.54.74A2.834,2.834,0,0,1,35.629,19.934Z" fill="#fff"/>
      <path d="M41.339,19.254a5.139,5.139,0,0,1-1.39-3.82,5.141,5.141,0,0,1,1.39-3.82,5.254,5.254,0,0,1,3.87-1.38,5.254,5.254,0,0,1,3.87,1.38,5.141,5.141,0,0,1,1.39,3.82,5.139,5.139,0,0,1-1.39,3.82,5.254,5.254,0,0,1-3.87,1.38A5.254,5.254,0,0,1,41.339,19.254Zm5.65-1.54a3.62,3.62,0,0,0,.64-2.28,3.622,3.622,0,0,0-.64-2.28,2.342,2.342,0,0,0-3.56,0,3.622,3.622,0,0,0-.64,2.28,3.62,3.62,0,0,0,.64,2.28,2.342,2.342,0,0,0,3.56,0Z" fill="#fff"/>
      <path d="M55.959,20.234a3.4,3.4,0,0,1-1.25-1.04h-.04q0,.94-.02,1.24h-2.68q.06-.54.06-2.7V6.434h2.84v4.92h.04a3.228,3.228,0,0,1,2.841-1.12,3.652,3.652,0,0,1,3,1.33,5.728,5.728,0,0,1,1.08,3.71,6.208,6.208,0,0,1-1.12,3.94,3.726,3.726,0,0,1-3.1,1.42A3.618,3.618,0,0,1,55.959,20.234Zm2.551-2.57a4.525,4.525,0,0,0,.5-2.35,4.068,4.068,0,0,0-.5-2.22,1.658,1.658,0,0,0-1.481-.76,2.172,2.172,0,0,0-1.529.58,1.834,1.834,0,0,0-.631,1.4v2.14a1.914,1.914,0,0,0,.59,1.47,2.21,2.21,0,0,0,1.57.55A1.632,1.632,0,0,0,58.51,17.664Z" fill="#fff"/>
      <path d="M72.73,16.474H65.849a2.147,2.147,0,0,0,.75,1.34,2.48,2.48,0,0,0,1.55.44,3.708,3.708,0,0,0,1.5-.28,4.024,4.024,0,0,0,1.28-.96l1.52,1.44a4.122,4.122,0,0,1-1.81,1.58,6.008,6.008,0,0,1-2.67.6,4.931,4.931,0,0,1-3.7-1.37,5.186,5.186,0,0,1-1.341-3.79,5.322,5.322,0,0,1,1.341-3.84,4.85,4.85,0,0,1,3.679-1.4,4.519,4.519,0,0,1,3.51,1.39,5.466,5.466,0,0,1,1.271,3.83Zm-2.8-2.02a1.821,1.821,0,0,0-.54-1.39,2.068,2.068,0,0,0-1.48-.51,1.889,1.889,0,0,0-1.38.53,2.721,2.721,0,0,0-.719,1.49h4.119Z" fill="#fff"/>
      <path d="M74.608,6.434h9.68v2.56h-6.46v3.34h6.04v2.56h-6.04v5.54h-3.22Z" fill="#fff"/>
      <path d="M87.169,20.214a3.092,3.092,0,0,1-1.66-2.8,2.66,2.66,0,0,1,1.24-2.36,6.445,6.445,0,0,1,3.56-.82h1.4v-.4a1.327,1.327,0,0,0-.44-1.06,1.778,1.778,0,0,0-1.2-.38,5.048,5.048,0,0,0-1.729.3,3.8,3.8,0,0,0-1.37.82l-1.22-1.62a6.636,6.636,0,0,1,2.029-1.21,6.562,6.562,0,0,1,2.37-.45,5,5,0,0,1,3.221.95,3.149,3.149,0,0,1,1.18,2.59v4.5a9.52,9.52,0,0,0,.08,1.14,7.23,7.23,0,0,0,.18,1.02h-2.54a3.7,3.7,0,0,1-.18-.5,4.127,4.127,0,0,1-.1-.62h-.039a3.758,3.758,0,0,1-3.02,1.32A3.648,3.648,0,0,1,87.169,20.214Zm3.97-2.13a1.4,1.4,0,0,0,.57-1.15v-.84h-1.48a2.55,2.55,0,0,0-1.44.34,1.111,1.111,0,0,0-.5.98,1.006,1.006,0,0,0,.359.83,1.629,1.629,0,0,0,1.04.29A2.271,2.271,0,0,0,91.139,18.084Z" fill="#fff"/>
      <path d="M96.648,12.874q0-1.7-.059-2.44h2.7a17.207,17.207,0,0,1,.08,1.76v.2h.08a3.118,3.118,0,0,1,1.37-1.57,4.356,4.356,0,0,1,2.271-.59,3.834,3.834,0,0,1,.619.06v2.22a1.892,1.892,0,0,0-.4-.02,3.671,3.671,0,0,0-1.9.52,3.961,3.961,0,0,0-1.4,1.38,3.518,3.518,0,0,0-.521,1.86v4.18h-2.84Z" fill="#fff"/>
      <path d="M113.309,16.474h-6.881a2.147,2.147,0,0,0,.75,1.34,2.481,2.481,0,0,0,1.551.44,3.714,3.714,0,0,0,1.5-.28,4.032,4.032,0,0,0,1.279-.96l1.52,1.44a4.122,4.122,0,0,1-1.81,1.58,6.008,6.008,0,0,1-2.67.6,4.931,4.931,0,0,1-3.7-1.37,5.186,5.186,0,0,1-1.341-3.79,5.322,5.322,0,0,1,1.341-3.84,4.85,4.85,0,0,1,3.679-1.4,4.519,4.519,0,0,1,3.51,1.39,5.466,5.466,0,0,1,1.271,3.83Zm-2.8-2.02a1.821,1.821,0,0,0-.54-1.39,2.068,2.068,0,0,0-1.48-.51,1.889,1.889,0,0,0-1.38.53,2.721,2.721,0,0,0-.719,1.49h4.119Z" fill="#fff"/>
      <path d="M114.908,12.874q0-1.7-.059-2.44h2.7a17.207,17.207,0,0,1,.08,1.76v.2h.08a3.118,3.118,0,0,1,1.37-1.57,4.353,4.353,0,0,1,2.271-.59,3.844,3.844,0,0,1,.619.06v2.22a1.905,1.905,0,0,0-.4-.02,3.67,3.67,0,0,0-1.9.52,3.961,3.961,0,0,0-1.4,1.38,3.518,3.518,0,0,0-.521,1.86v4.18h-2.84Z" fill="#fff"/>
    </g>
  </g>
</svg>
